<svg xmlns="http://www.w3.org/2000/svg" viewBox="0 0 2560 2560">
  <path fill="#D52A2A" d="
    M 1280,0
    C 1986.92447978368,0 2489.165,505 2553.665,1152
    C 2553.665,1152 2041.665,1152 2041.665,1152
    C 1976.434,789.00439808 1704.154687870208,512 1280,512
    C 855.8453121297921,512 583.566,789.00439808 518.335,1152
    C 518.335,1152 6.335000000000008,1152 6.335000000000008,1152
    C 70.83499999999998,505 573.07552021632,0 1280,0" />
  <path fill="#D52A2A" d="
    M 1280,768
    C 1280,768 1280,768 1280,768
    C 1562.769791913472,768 1792,997.230208086528 1792,1280
    C 1792,1562.769791913472 1562.769791913472,1792 1280,1792
    C 1280,1792 1280,1792 1280,1792
    C 1280,1792 1280,1792 1280,1792
    C 997.230208086528,1792 768,1562.769791913472 768,1280
    C 768,997.230208086528 997.230208086528,768 1280,768
    C 1280,768 1280,768 1280,768" />
  <path fill="#D52A2A" d="
    M 1280,2048
    C 1704.154687870208,2048 1976.434,1770.99560192 2041.665,1408
    C 2041.665,1408 2553.665,1408 2553.665,1408
    C 2489.165,2055 1986.92447978368,2560 1280,2560
    C 573.07552021632,2560 70.83499999999998,2055 6.335000000000008,1408
    C 6.335000000000008,1408 518.335,1408 518.335,1408
    C 583.566,1770.99560192 855.8453121297921,2048 1280,2048" />
</svg>
